<svg id="Capa_1" data-name="Capa 1" xmlns="http://www.w3.org/2000/svg" viewBox="0 0 794.97 197.69"><defs><style>.cls-1{fill:#1fa2aa;}.cls-1,.cls-2,.cls-3,.cls-4,.cls-5{fill-rule:evenodd;}.cls-2{fill:#102834;}.cls-3{fill:#fefefe;}.cls-4{fill:#fbfcfc;}.cls-5{fill:#f4f7f8;}</style></defs><path class="cls-1" d="M348.5,127.84a55.91,55.91,0,0,1-6.73-20c-2.85-22.82,10.12-44.75,32.37-54.1,3.23-1.35,4.38-2.91,4.24-6.27-.31-7.29-.14-14.61-.07-21.91,0-1.75-.06-2.86-2.43-3-1.91-.12-3-1.6-2.95-3.57,0-3.24,0-6.47,0-9.71,0-2.52,1.42-3.61,4.05-3.61q20.17.06,40.36,0c2.68,0,3.91,1.22,3.9,3.73,0,3.23,0,6.46,0,9.7,0,2-1,3.43-3,3.49-2.38.07-2.45,1.16-2.43,2.91q.12,12,0,24.08c0,1.67.46,2.45,2.17,3.15,19.52,8,31.23,22,34.38,42.07,1.78,11.3-.44,22.12-6.41,32.55,3.46.15,6.66.09,9.81.48a9.59,9.59,0,0,1,8.31,6.88c1.34,3.92.15,7.32-2.87,10.14a9.43,9.43,0,0,1-6.81,2.49c-8.79,0-17.59.16-26.38.17a13,13,0,0,0-5.68,1.54c-15,7-30.52,8-45.86,1.72-6.74-2.77-13.42-3.3-20.39-3.44-5.65-.12-11.31,0-17,0-5.38,0-9.65-3.73-10.12-8.71a9.75,9.75,0,0,1,8.39-10.68C340.76,127.5,344.19,127.84,348.5,127.84Z" transform="translate(-6.85 -5.67)"/><path class="cls-2" d="M188,102.24q0-20.83,0-41.66c0-4.08,1.26-5.27,5.57-5.28,7.91,0,15.83-.1,23.75,0,10.88.16,18.95,5,23.72,14.24s3.52,18.09-3,26.19c-1.65,2.06-1.85,3,.2,5.07,8.13,8.05,10.68,17.7,7.28,28.39-3.49,11-11.48,18-23.29,19.89-7.1,1.12-14.53.35-21.81.42-2.39,0-4.78,0-7.17,0-4-.08-5.29-1.38-5.29-5.24Q188,123.25,188,102.24Z" transform="translate(-6.85 -5.67)"/><path class="cls-2" d="M167.65,144.93c-.24,2.38-1.2,4-3.45,4.48a4.59,4.59,0,0,1-5.51-2.69c-2.57-5.42-5.55-10.72-7.49-16.34-2-5.91-5.15-8.09-12-7.72-13,.71-26.13.27-39.21.15-2.35,0-3.42.69-4.37,2.75-3.22,6.95-6.8,13.76-10.1,20.69-1.23,2.59-3.11,3.72-5.94,3.13s-3.82-3.54-2.29-6.71c6.42-13.28,12.91-26.53,19.36-39.8Q107.24,81,117.82,59.14c1-2.14,2-4,5.09-3.9,2.81.13,3.75,1.87,4.71,3.92q19.45,41.51,39,83C167.05,143.13,167.36,144.16,167.65,144.93Z" transform="translate(-6.85 -5.67)"/><path class="cls-2" d="M778.54,111.71c7.06,9.78,14,19.41,21,29.05a14.81,14.81,0,0,1,1.85,2.69c.88,2.07.64,4.07-1.5,5.36a4.62,4.62,0,0,1-5.84-.56,12.33,12.33,0,0,1-1.57-2Q780.09,129.11,767.75,112c-3.27-4.56-2-7.27,3.71-8,11.45-1.55,17.76-7.09,19.88-17.43C793.48,76,784,64.39,772.65,63.9c-4.52-.2-9.06.08-13.57-.16-2.85-.15-3.76.52-3.74,3.44.14,25.15.08,50.3.07,75.45a13.8,13.8,0,0,1-.08,3.22c-.57,2.35-2.05,3.82-4.79,3.61s-4-1.62-4.14-4.16c0-.6,0-1.2,0-1.8V61.22c0-5,1-6,6.41-5.9,8,.22,16.13-1,24,.63,13.24,2.71,22.61,12.93,23.79,25.4S794,105.76,781.51,110.6C780.61,111,779.69,111.28,778.54,111.71Z" transform="translate(-6.85 -5.67)"/><path class="cls-2" d="M667.91,102.07q0-20.67,0-41.33c0-4.33,1.18-5.44,5.79-5.44h43c4.62,0,6.67,1.19,6.79,3.92.14,2.9-2.46,4.58-7.12,4.58-12.06,0-24.14.09-36.21-.06-2.63,0-3.35.6-3.3,3.13q.27,12.93,0,25.88c0,2.48.84,2.89,3.17,2.86,10.06-.11,20.12,0,30.18-.08,3.11,0,5.17,1,5.48,4.06.28,2.72-1.92,4.55-5.43,4.56-10,0-20.11.07-30.17,0-2.24,0-3.28.23-3.24,2.81.18,10.42.16,20.85,0,31.27,0,2.24.6,2.77,2.91,2.75,12.2-.11,24.39-.05,36.59-.05a21.12,21.12,0,0,1,2.64,0c2.76.34,4.5,2,4.39,4.51s-1.74,4.1-4.71,4.09c-15.34,0-30.68,0-46,0-3.51,0-4.8-1.83-4.79-5C667.94,130.34,667.91,116.2,667.91,102.07Z" transform="translate(-6.85 -5.67)"/><path class="cls-2" d="M557.13,150.94c-15.17,0-27.81-10.91-29.47-25.38a17.32,17.32,0,0,1-.07-2.16c0-2.77,1.34-4.69,4.39-4.79s4.41,1.54,4.67,4.44c.89,10,6.43,16.39,16.05,18.75,9.44,2.32,19.93-2.74,23.72-11.45,3.89-8.94.49-18.42-8.3-23.58-4.53-2.66-9.62-3.19-14.66-4-12.15-2.07-21.87-12-22.13-22.55C531,67,538.67,57.37,551.86,54.31c12.26-2.85,25.78,4.18,30,15.52,1,2.71.81,5.14-2.28,6.2-2.89,1-4.84-.22-6.16-3-4.94-10.59-16.84-14-26-7.58-5.66,4-8.11,9.49-6.72,16,1.53,7.19,6.89,11.16,14.16,12.69,4.87,1,9.85,1.43,14.48,3.47,13.61,6,20.25,18.35,17,32C583.36,142,571.14,151,557.13,150.94Z" transform="translate(-6.85 -5.67)"/><path class="cls-2" d="M298.91,133.09c9.8-24.74,19.22-48.5,28.63-72.27,2.06-5.21,3.84-6.6,7.07-5.52s3.5,3.29,1.41,8.59q-16,40.32-31.93,80.65c-.65,1.64-1.07,3.47-2.85,4.49-2.73,1.55-5.39.29-6.84-3.33q-8.17-20.47-16.3-41-8.42-21.15-16.83-42.3c-.88-2.2-1.54-4.36.61-6.27,2.61-2.32,6.2-1.06,7.74,2.82q8.26,20.82,16.46,41.68C290.23,111.18,294.4,121.68,298.91,133.09Z" transform="translate(-6.85 -5.67)"/><path class="cls-2" d="M486.07,102.27c0-11.85-.06-23.71.06-35.56,0-2.29-.53-3.19-3.07-3a44,44,0,0,1-7.53,0c-2.8-.24-4.76-1.62-4.55-4.63.2-2.77,2-3.85,4.81-3.84q15.07,0,30.16,0c2.76,0,4.67.88,5,3.68.34,3-1.72,4.44-4.45,4.72a68,68,0,0,1-9,.08c-1.75-.06-2.38.35-2.38,2.15q.09,36.47,0,72.91c0,1.88.76,2.16,2.42,2.1,2.89-.11,5.79-.13,8.67,0s4.83,1.38,4.78,4.39-1.95,4.2-4.9,4.2H475.88c-3,0-4.85-1.18-4.89-4.16,0-3.17,2-4.42,5.07-4.46,2.39,0,4.79-.16,7.16,0s2.94-.5,2.92-2.74C486,126.22,486.07,114.24,486.07,102.27Z" transform="translate(-6.85 -5.67)"/><path class="cls-2" d="M624.53,55.29c5,0,10.05,0,15.08,0,2.78,0,4.61,1,4.89,3.77s-1.62,4.29-4.18,4.58a55.55,55.55,0,0,1-9,.12c-2.21-.12-2.67.64-2.67,2.61q.11,36.09,0,72.19c0,1.89.55,2.48,2.52,2.38,2.76-.15,5.53-.09,8.29,0,3,.07,5.14,1.29,5.06,4.48-.08,3-2.06,4.12-5,4.12H609.36c-3,0-4.81-1.25-4.81-4.24s1.92-4.25,4.8-4.36a50.17,50.17,0,0,1,7.15,0c2.79.29,3.21-.81,3.2-3.2q-.15-35.37,0-70.75c0-2.81-.83-3.5-3.56-3.24a38,38,0,0,1-7.15,0c-2.8-.28-4.73-1.7-4.46-4.7.25-2.8,2.13-3.78,4.9-3.75C614.48,55.33,619.5,55.29,624.53,55.29Z" transform="translate(-6.85 -5.67)"/><path class="cls-2" d="M6.87,93.66q0-16.53,0-33.06c0-3.73,1.32-5.29,4.41-5.3s4.59,1.64,4.6,5.24c0,19.88.07,39.77-.06,59.65,0,2.8.71,3.54,3.66,3.5,12.57-.17,25.15-.1,37.72,0,4.27,0,6.67,3.12,5,6.24a4.38,4.38,0,0,1-4.26,2.36c-15.47-.05-30.93,0-46.39,0-3.55,0-4.7-2-4.68-5.13C6.91,115.94,6.87,104.8,6.87,93.66Z" transform="translate(-6.85 -5.67)"/><path class="cls-1" d="M378.33,197.33c-3.17-7.2-.86-13.24,2.64-19.13,2.77-4.66,6.44-8.9,7.77-14.26a37.29,37.29,0,0,0,.62-5c.31-2.78,2.55-4.23,5-2.79,10.6,6.26,22.4,19.5,20.14,34.46-.34,2.25-1.44,4.22-2.33,6.65,1.65,0,3-.09,4.37,0,2,.17,3.31,1.16,3.23,3.23-.08,1.9-1.33,2.8-3.22,2.8q-20.94,0-41.87,0c-1.9,0-3.13-.94-3.25-2.78s1.09-2.9,2.89-3.2A28.65,28.65,0,0,1,378.33,197.33Z" transform="translate(-6.85 -5.67)"/><path class="cls-2" d="M34.69,149.52c-7.42,0-14.84,0-22.25,0-3.86,0-5.61-1.41-5.56-4.28s1.94-4.32,5.66-4.33q22.25,0,44.5,0c3.58,0,5.66,1.72,5.65,4.42s-1.95,4.18-5.75,4.19C49.53,149.54,42.11,149.52,34.69,149.52Z" transform="translate(-6.85 -5.67)"/><path class="cls-3" d="M350,88c5.55-14.92,15.45-24.94,30.45-30,3.47-1.18,4.6-2.87,4.51-6.28-.24-8.73,0-17.48-.15-26.21,0-2.23.59-2.84,2.91-2.78,6.15.16,12.32.2,18.46,0,2.82-.1,3.23.89,3.19,3.26-.15,8.49.09,17-.14,25.49-.1,3.54,1.1,5.32,4.7,6.57,15.25,5.27,25.28,15.46,30.32,30.16.83,2.39.54,3.32-2.41,4.08C428.18,95.78,415,93.73,402,89.59c-11.47-3.63-23-6.85-35.33-5.49C361.15,84.71,355.94,86.29,350,88Z" transform="translate(-6.85 -5.67)"/><path class="cls-4" d="M396.61,133.76q27.9,0,55.8,0c2.95,0,5.57.57,5.59,3.83s-2.6,3.89-5.55,3.89q-55.23,0-110.47,0a16.46,16.46,0,0,1-2.63-.05c-2.21-.36-3.76-1.5-3.76-3.79s1.47-3.49,3.71-3.83a21.56,21.56,0,0,1,3,0h54.3Z" transform="translate(-6.85 -5.67)"/><path class="cls-5" d="M397.1,16.51c-5,0-10-.06-15,0-1.86,0-2.64-.34-2.59-2.32.05-1.8.45-2.52,2.51-2.5q15,.13,30.05,0c2,0,2.86.46,2.86,2.58s-1.08,2.24-2.78,2.22C407.12,16.47,402.11,16.51,397.1,16.51Z" transform="translate(-6.85 -5.67)"/><path class="cls-3" d="M197,102c0-11.73.09-23.47-.07-35.2,0-2.58.77-3.17,3.35-3.08,5.77.2,11.56,0,17.33.11,7.53.19,12.76,3.82,15.66,10.34,3,6.67,1.14,12.56-3.65,17.87a3.63,3.63,0,0,1-4.3,1.17c-4.73-1.61-9.65-1.29-14.53-1.23-2.92,0-4.82,1.4-4.77,4.37s1.78,4.22,4.82,4.23a54.6,54.6,0,0,1,10.12.56c10.62,2,17.78,11.18,16.81,21.78-.89,9.78-10,17.81-20.47,17.92-5.78.06-11.57-.12-17.34.09-2.6.09-3-.8-3-3C197.07,126,197,114,197,102Z" transform="translate(-6.85 -5.67)"/><path class="cls-3" d="M122.7,69.82l20.76,44.33H101.11Z" transform="translate(-6.85 -5.67)"/><path class="cls-3" d="M395.39,164.59c6.78,5.63,11.35,11.85,12.69,19.94a14.06,14.06,0,0,1-.56,7.08c-1.53,4.32-3.49,5.63-8.28,5.63h-9.42c-4.23,0-6.16-1.68-6.44-5.74s1.51-7.43,3.59-10.75C390.1,175.74,393.74,171,395.39,164.59Z" transform="translate(-6.85 -5.67)"/></svg>