<svg id="Capa_1" data-name="Capa 1" xmlns="http://www.w3.org/2000/svg" viewBox="0 0 794.97 197.69"><defs><style>.cls-1{fill:#1fa2aa;}.cls-1,.cls-2,.cls-3,.cls-4,.cls-5{fill-rule:evenodd;}.cls-2{fill:#102834;}.cls-3{fill:#fefefe;}.cls-4{fill:#fbfcfc;}.cls-5{fill:#f4f7f8;}</style></defs><path class="cls-1" d="M365.11,323.05a55.79,55.79,0,0,1-6.73-20c-2.85-22.82,10.13-44.75,32.37-54.09,3.23-1.36,4.38-2.92,4.24-6.27-.31-7.3-.14-14.61-.07-21.92,0-1.74-.06-2.86-2.43-3-1.91-.12-3-1.6-2.95-3.57,0-3.24,0-6.47,0-9.7,0-2.53,1.42-3.62,4.05-3.61q20.17,0,40.36,0c2.68,0,3.91,1.22,3.9,3.73,0,3.23,0,6.47,0,9.7,0,2-1,3.43-3,3.49-2.37.07-2.45,1.16-2.43,2.92q.12,12,0,24.07c0,1.68.47,2.46,2.17,3.16,19.52,8,31.23,22,34.38,42.06,1.78,11.3-.44,22.12-6.41,32.55,3.46.15,6.66.09,9.81.48a9.59,9.59,0,0,1,8.31,6.88c1.34,3.92.15,7.32-2.87,10.14a9.4,9.4,0,0,1-6.81,2.5c-8.79,0-17.59.15-26.38.16a13.09,13.09,0,0,0-5.68,1.54c-15,7-30.52,8-45.86,1.72-6.74-2.77-13.42-3.3-20.39-3.44-5.65-.12-11.31,0-17,0-5.38,0-9.65-3.72-10.12-8.7A9.75,9.75,0,0,1,354,323.13C357.37,322.71,360.8,323.05,365.11,323.05Z" transform="translate(-23.46 -200.89)"/><path class="cls-2" d="M204.59,297.46q0-20.83,0-41.67c0-4.08,1.26-5.27,5.57-5.28,7.91,0,15.83-.1,23.75,0,10.88.16,19,5,23.72,14.24s3.52,18.1-3,26.19c-1.65,2.06-1.85,3.05.2,5.08,8.13,8,10.68,17.7,7.28,28.38-3.49,11-11.48,18-23.28,19.89-7.11,1.12-14.54.35-21.82.42-2.39,0-4.78,0-7.17,0-4-.07-5.29-1.37-5.29-5.24Q204.57,318.47,204.59,297.46Z" transform="translate(-23.46 -200.89)"/><path class="cls-2" d="M184.26,340.14c-.24,2.39-1.2,4-3.45,4.48a4.59,4.59,0,0,1-5.51-2.69c-2.57-5.42-5.55-10.72-7.49-16.34-2-5.91-5.15-8.09-12-7.71-13,.7-26.13.26-39.2.15-2.36,0-3.43.68-4.38,2.74-3.22,7-6.8,13.77-10.1,20.7-1.23,2.59-3.11,3.71-5.94,3.12s-3.82-3.54-2.29-6.7c6.42-13.28,12.91-26.54,19.36-39.81q10.62-21.85,21.19-43.73c1-2.14,2-4,5.09-3.89,2.82.13,3.75,1.86,4.71,3.91q19.47,41.52,39,83C183.66,338.35,184,339.37,184.26,340.14Z" transform="translate(-23.46 -200.89)"/><path class="cls-2" d="M795.15,306.92l21,29.05a15.17,15.17,0,0,1,1.85,2.69c.88,2.08.64,4.08-1.5,5.36a4.61,4.61,0,0,1-5.84-.56,12.25,12.25,0,0,1-1.57-2q-12.35-17.13-24.67-34.27c-3.28-4.57-2-7.28,3.7-8.05,11.45-1.55,17.76-7.09,19.88-17.43,2.14-10.5-7.39-22.1-18.69-22.6-4.52-.2-9.06.08-13.57-.16-2.85-.15-3.76.53-3.74,3.44.14,25.15.08,50.3.08,75.45a13.9,13.9,0,0,1-.09,3.23c-.56,2.34-2.05,3.82-4.79,3.6s-4-1.62-4.14-4.16c0-.59,0-1.19,0-1.79V256.43c0-5,1-6,6.41-5.89,8,.22,16.13-1,24.05.63,13.23,2.7,22.6,12.92,23.78,25.4s-6.63,24.4-19.12,29.24C797.22,306.16,796.3,306.49,795.15,306.92Z" transform="translate(-23.46 -200.89)"/><path class="cls-2" d="M684.52,297.28q0-20.67,0-41.33c0-4.33,1.18-5.44,5.79-5.44h43c4.62,0,6.67,1.18,6.79,3.91.14,2.9-2.46,4.58-7.12,4.59-12.06,0-24.14.08-36.21-.07-2.63,0-3.35.6-3.3,3.13q.27,12.94,0,25.88c-.05,2.48.84,2.89,3.17,2.87,10.06-.12,20.12,0,30.18-.09,3.11,0,5.17,1,5.48,4.06.28,2.72-1.92,4.55-5.43,4.56-10,0-20.11.07-30.17,0-2.24,0-3.28.22-3.24,2.8.18,10.42.16,20.85,0,31.27,0,2.25.6,2.78,2.91,2.75,12.2-.11,24.39,0,36.59,0a23.23,23.23,0,0,1,2.64,0c2.76.34,4.5,2,4.39,4.52s-1.74,4.09-4.71,4.09c-15.34,0-30.68,0-46,0-3.51,0-4.8-1.83-4.79-5C684.55,325.55,684.52,311.41,684.52,297.28Z" transform="translate(-23.46 -200.89)"/><path class="cls-2" d="M573.74,346.15c-15.17,0-27.81-10.9-29.47-25.38a17.26,17.26,0,0,1-.06-2.16c0-2.77,1.33-4.69,4.38-4.78s4.41,1.53,4.67,4.44c.89,10,6.44,16.38,16,18.75,9.44,2.31,19.93-2.75,23.72-11.45,3.89-8.95.49-18.42-8.3-23.59-4.53-2.65-9.62-3.18-14.66-4.05-12.15-2.07-21.87-12-22.13-22.55-.32-13.15,7.34-22.8,20.53-25.86,12.26-2.85,25.78,4.18,30,15.52,1,2.71.81,5.15-2.28,6.21-2.89,1-4.84-.22-6.16-3.06-4.94-10.58-16.84-14-26-7.58-5.66,4-8.11,9.49-6.72,16,1.53,7.19,6.89,11.15,14.16,12.68,4.87,1,9.85,1.43,14.48,3.47,13.62,6,20.25,18.35,17,32C600,337.21,587.75,346.18,573.74,346.15Z" transform="translate(-23.46 -200.89)"/><path class="cls-2" d="M315.52,328.3c9.8-24.73,19.22-48.5,28.63-72.27,2.07-5.2,3.84-6.59,7.07-5.51s3.5,3.29,1.41,8.58q-16,40.33-31.93,80.65c-.65,1.65-1.07,3.48-2.85,4.49-2.73,1.56-5.39.3-6.84-3.32q-8.17-20.48-16.3-41-8.41-21.15-16.83-42.3c-.87-2.2-1.54-4.36.61-6.27,2.61-2.32,6.2-1,7.74,2.83q8.26,20.82,16.46,41.67C306.84,306.39,311,316.89,315.52,328.3Z" transform="translate(-23.46 -200.89)"/><path class="cls-2" d="M502.69,297.48c0-11.85-.07-23.7.05-35.55,0-2.3-.53-3.19-3.07-3a43,43,0,0,1-7.53,0c-2.8-.24-4.76-1.62-4.55-4.62.2-2.78,2-3.85,4.81-3.85q15.08.06,30.16,0c2.76,0,4.67.88,5,3.68.34,3.06-1.72,4.45-4.45,4.72a66.33,66.33,0,0,1-9,.08c-1.75-.06-2.38.35-2.38,2.16q.09,36.45,0,72.91c0,1.87.76,2.15,2.42,2.09,2.89-.1,5.79-.13,8.67,0s4.83,1.39,4.78,4.4-1.95,4.19-4.9,4.19q-15.07,0-30.15,0c-3,0-4.85-1.19-4.89-4.16,0-3.18,2-4.42,5.07-4.46a71.22,71.22,0,0,1,7.16,0c2.33.2,2.94-.5,2.92-2.74C502.62,321.43,502.69,309.46,502.69,297.48Z" transform="translate(-23.46 -200.89)"/><path class="cls-2" d="M641.14,250.51c5,0,10.05,0,15.08,0,2.78,0,4.61,1,4.89,3.77s-1.62,4.29-4.18,4.58a54.44,54.44,0,0,1-9,.12c-2.21-.12-2.67.64-2.67,2.61q.1,36.1,0,72.19c0,1.9.55,2.49,2.52,2.38,2.76-.15,5.53-.09,8.29,0,3,.07,5.14,1.29,5.06,4.49-.08,3-2.06,4.11-5,4.11q-15.07,0-30.15,0c-3,0-4.81-1.25-4.81-4.23s1.92-4.25,4.8-4.37a51.69,51.69,0,0,1,7.15,0c2.79.29,3.21-.8,3.2-3.2q-.15-35.37,0-70.75c0-2.8-.83-3.49-3.55-3.24a38.06,38.06,0,0,1-7.16,0c-2.8-.28-4.73-1.69-4.46-4.7.25-2.8,2.13-3.78,4.9-3.75C631.09,250.54,636.11,250.51,641.14,250.51Z" transform="translate(-23.46 -200.89)"/><path class="cls-2" d="M23.48,288.88q0-16.53,0-33.06c0-3.73,1.32-5.3,4.41-5.31s4.59,1.64,4.6,5.24c0,19.89.07,39.77-.06,59.65,0,2.8.71,3.54,3.66,3.5,12.57-.17,25.15-.1,37.72,0,4.27,0,6.67,3.12,5,6.24a4.38,4.38,0,0,1-4.26,2.36c-15.47,0-30.93,0-46.39,0-3.55,0-4.7-2-4.68-5.13C23.52,311.15,23.48,300,23.48,288.88Z" transform="translate(-23.46 -200.89)"/><path class="cls-1" d="M394.94,392.54c-3.17-7.2-.86-13.24,2.64-19.13,2.77-4.66,6.44-8.9,7.77-14.26a37.14,37.14,0,0,0,.62-5c.31-2.78,2.55-4.24,5-2.8,10.6,6.26,22.4,19.5,20.14,34.47-.34,2.24-1.44,4.21-2.33,6.64,1.65,0,3-.09,4.37,0,2,.17,3.32,1.16,3.23,3.24-.08,1.89-1.33,2.79-3.22,2.8q-20.94,0-41.87,0c-1.9,0-3.13-.94-3.25-2.79s1.09-2.9,2.89-3.19A28.39,28.39,0,0,1,394.94,392.54Z" transform="translate(-23.46 -200.89)"/><path class="cls-2" d="M51.3,344.73c-7.42,0-14.84,0-22.25,0-3.86,0-5.61-1.41-5.56-4.28s1.94-4.32,5.66-4.33q22.24,0,44.5,0c3.58,0,5.66,1.72,5.65,4.42s-2,4.17-5.75,4.18C66.14,344.75,58.72,344.73,51.3,344.73Z" transform="translate(-23.46 -200.89)"/><path class="cls-3" d="M366.64,283.23c5.55-14.92,15.45-24.94,30.45-30.05,3.47-1.18,4.6-2.87,4.51-6.28-.24-8.73,0-17.47-.15-26.21,0-2.23.59-2.83,2.91-2.78,6.15.16,12.32.21,18.47,0,2.81-.1,3.22.9,3.18,3.26-.15,8.5.09,17-.14,25.49-.1,3.54,1.1,5.32,4.7,6.57,15.25,5.27,25.28,15.47,30.32,30.16.83,2.39.54,3.32-2.41,4.08-13.69,3.53-26.86,1.48-39.91-2.66-11.47-3.63-23-6.84-35.33-5.48C377.76,279.92,372.55,281.5,366.64,283.23Z" transform="translate(-23.46 -200.89)"/><path class="cls-4" d="M413.22,329c18.6,0,37.2,0,55.8,0,3,0,5.57.57,5.59,3.83s-2.6,3.89-5.55,3.89q-55.23,0-110.47,0a16.45,16.45,0,0,1-2.63-.06c-2.21-.36-3.76-1.5-3.76-3.79s1.47-3.49,3.71-3.82a20.15,20.15,0,0,1,3-.06h54.3Z" transform="translate(-23.46 -200.89)"/><path class="cls-5" d="M413.72,211.73c-5,0-10-.07-15,0-1.86,0-2.64-.34-2.59-2.32,0-1.8.45-2.52,2.51-2.5q15,.13,30.05,0c2,0,2.86.46,2.86,2.59s-1.08,2.23-2.78,2.21C423.73,211.69,418.72,211.73,413.72,211.73Z" transform="translate(-23.46 -200.89)"/><path class="cls-3" d="M213.62,297.23c0-11.73.09-23.46-.07-35.19,0-2.59.77-3.18,3.35-3.09,5.77.2,11.56,0,17.33.12,7.53.18,12.76,3.81,15.66,10.34S251,282,246.24,287.28a3.64,3.64,0,0,1-4.3,1.16c-4.73-1.6-9.65-1.28-14.53-1.22-2.92,0-4.82,1.4-4.77,4.36s1.78,4.22,4.82,4.24a52.93,52.93,0,0,1,10.12.56c10.62,2,17.78,11.17,16.81,21.77-.89,9.78-10,17.81-20.47,17.93-5.78.06-11.57-.13-17.34.08-2.6.09-3-.79-3-3C213.68,321.17,213.62,309.2,213.62,297.23Z" transform="translate(-23.46 -200.89)"/><path class="cls-3" d="M139.31,265l20.76,44.34H117.72Z" transform="translate(-23.46 -200.89)"/><path class="cls-3" d="M412,359.81c6.78,5.62,11.35,11.84,12.69,19.93a14.11,14.11,0,0,1-.56,7.09c-1.53,4.31-3.49,5.62-8.28,5.62h-9.42c-4.23,0-6.16-1.68-6.44-5.74s1.52-7.43,3.59-10.75C406.72,371,410.35,366.19,412,359.81Z" transform="translate(-23.46 -200.89)"/></svg>